<mxfile host="65bd71144e">
    <diagram name="聚合" id="b5b7bab2-c9e2-2cf4-8b2a-24fd1a2a6d21">
        <mxGraphModel dx="820" dy="396" grid="1" gridSize="10" guides="1" tooltips="1" connect="1" arrows="1" fold="1" page="1" pageScale="1" pageWidth="827" pageHeight="1169" background="#666666" math="0" shadow="0">
            <root>
                <mxCell id="0"/>
                <mxCell id="1" parent="0"/>
                <mxCell id="Ud3K8VkBxeh35dExJ0qn-1" value="槓鈴" style="swimlane;fontStyle=1;align=center;verticalAlign=top;childLayout=stackLayout;horizontal=1;startSize=26;horizontalStack=0;resizeParent=1;resizeParentMax=0;resizeLast=0;collapsible=1;marginBottom=0;" parent="1" vertex="1">
                    <mxGeometry x="280" y="70" width="160" height="86" as="geometry"/>
                </mxCell>
                <mxCell id="Ud3K8VkBxeh35dExJ0qn-2" value="+ field:  " style="text;strokeColor=none;fillColor=none;align=left;verticalAlign=top;spacingLeft=4;spacingRight=4;overflow=hidden;rotatable=0;points=[[0,0.5],[1,0.5]];portConstraint=eastwest;" parent="Ud3K8VkBxeh35dExJ0qn-1" vertex="1">
                    <mxGeometry y="26" width="160" height="26" as="geometry"/>
                </mxCell>
                <mxCell id="Ud3K8VkBxeh35dExJ0qn-3" value="" style="line;strokeWidth=1;fillColor=none;align=left;verticalAlign=middle;spacingTop=-1;spacingLeft=3;spacingRight=3;rotatable=0;labelPosition=right;points=[];portConstraint=eastwest;" parent="Ud3K8VkBxeh35dExJ0qn-1" vertex="1">
                    <mxGeometry y="52" width="160" height="8" as="geometry"/>
                </mxCell>
                <mxCell id="Ud3K8VkBxeh35dExJ0qn-4" value="+ method(type): " style="text;strokeColor=none;fillColor=none;align=left;verticalAlign=top;spacingLeft=4;spacingRight=4;overflow=hidden;rotatable=0;points=[[0,0.5],[1,0.5]];portConstraint=eastwest;" parent="Ud3K8VkBxeh35dExJ0qn-1" vertex="1">
                    <mxGeometry y="60" width="160" height="26" as="geometry"/>
                </mxCell>
                <mxCell id="Ud3K8VkBxeh35dExJ0qn-5" value="槓" style="swimlane;fontStyle=1;align=center;verticalAlign=top;childLayout=stackLayout;horizontal=1;startSize=26;horizontalStack=0;resizeParent=1;resizeParentMax=0;resizeLast=0;collapsible=1;marginBottom=0;" parent="1" vertex="1">
                    <mxGeometry x="280" y="260" width="160" height="86" as="geometry"/>
                </mxCell>
                <mxCell id="Ud3K8VkBxeh35dExJ0qn-6" value="+ field:  " style="text;strokeColor=none;fillColor=none;align=left;verticalAlign=top;spacingLeft=4;spacingRight=4;overflow=hidden;rotatable=0;points=[[0,0.5],[1,0.5]];portConstraint=eastwest;" parent="Ud3K8VkBxeh35dExJ0qn-5" vertex="1">
                    <mxGeometry y="26" width="160" height="26" as="geometry"/>
                </mxCell>
                <mxCell id="Ud3K8VkBxeh35dExJ0qn-7" value="" style="line;strokeWidth=1;fillColor=none;align=left;verticalAlign=middle;spacingTop=-1;spacingLeft=3;spacingRight=3;rotatable=0;labelPosition=right;points=[];portConstraint=eastwest;" parent="Ud3K8VkBxeh35dExJ0qn-5" vertex="1">
                    <mxGeometry y="52" width="160" height="8" as="geometry"/>
                </mxCell>
                <mxCell id="Ud3K8VkBxeh35dExJ0qn-8" value="+ method(type): " style="text;strokeColor=none;fillColor=none;align=left;verticalAlign=top;spacingLeft=4;spacingRight=4;overflow=hidden;rotatable=0;points=[[0,0.5],[1,0.5]];portConstraint=eastwest;" parent="Ud3K8VkBxeh35dExJ0qn-5" vertex="1">
                    <mxGeometry y="60" width="160" height="26" as="geometry"/>
                </mxCell>
                <mxCell id="Ud3K8VkBxeh35dExJ0qn-9" value="安全卡扣" style="swimlane;fontStyle=1;align=center;verticalAlign=top;childLayout=stackLayout;horizontal=1;startSize=26;horizontalStack=0;resizeParent=1;resizeParentMax=0;resizeLast=0;collapsible=1;marginBottom=0;" parent="1" vertex="1">
                    <mxGeometry x="510" y="260" width="160" height="86" as="geometry"/>
                </mxCell>
                <mxCell id="Ud3K8VkBxeh35dExJ0qn-10" value="+ field:  " style="text;strokeColor=none;fillColor=none;align=left;verticalAlign=top;spacingLeft=4;spacingRight=4;overflow=hidden;rotatable=0;points=[[0,0.5],[1,0.5]];portConstraint=eastwest;" parent="Ud3K8VkBxeh35dExJ0qn-9" vertex="1">
                    <mxGeometry y="26" width="160" height="26" as="geometry"/>
                </mxCell>
                <mxCell id="Ud3K8VkBxeh35dExJ0qn-11" value="" style="line;strokeWidth=1;fillColor=none;align=left;verticalAlign=middle;spacingTop=-1;spacingLeft=3;spacingRight=3;rotatable=0;labelPosition=right;points=[];portConstraint=eastwest;" parent="Ud3K8VkBxeh35dExJ0qn-9" vertex="1">
                    <mxGeometry y="52" width="160" height="8" as="geometry"/>
                </mxCell>
                <mxCell id="Ud3K8VkBxeh35dExJ0qn-12" value="+ method(type): " style="text;strokeColor=none;fillColor=none;align=left;verticalAlign=top;spacingLeft=4;spacingRight=4;overflow=hidden;rotatable=0;points=[[0,0.5],[1,0.5]];portConstraint=eastwest;" parent="Ud3K8VkBxeh35dExJ0qn-9" vertex="1">
                    <mxGeometry y="60" width="160" height="26" as="geometry"/>
                </mxCell>
                <mxCell id="Ud3K8VkBxeh35dExJ0qn-13" value="槓片" style="swimlane;fontStyle=1;align=center;verticalAlign=top;childLayout=stackLayout;horizontal=1;startSize=26;horizontalStack=0;resizeParent=1;resizeParentMax=0;resizeLast=0;collapsible=1;marginBottom=0;" parent="1" vertex="1">
                    <mxGeometry x="40" y="260" width="160" height="86" as="geometry"/>
                </mxCell>
                <mxCell id="Ud3K8VkBxeh35dExJ0qn-14" value="+ field:  " style="text;strokeColor=none;fillColor=none;align=left;verticalAlign=top;spacingLeft=4;spacingRight=4;overflow=hidden;rotatable=0;points=[[0,0.5],[1,0.5]];portConstraint=eastwest;" parent="Ud3K8VkBxeh35dExJ0qn-13" vertex="1">
                    <mxGeometry y="26" width="160" height="26" as="geometry"/>
                </mxCell>
                <mxCell id="Ud3K8VkBxeh35dExJ0qn-15" value="" style="line;strokeWidth=1;fillColor=none;align=left;verticalAlign=middle;spacingTop=-1;spacingLeft=3;spacingRight=3;rotatable=0;labelPosition=right;points=[];portConstraint=eastwest;" parent="Ud3K8VkBxeh35dExJ0qn-13" vertex="1">
                    <mxGeometry y="52" width="160" height="8" as="geometry"/>
                </mxCell>
                <mxCell id="Ud3K8VkBxeh35dExJ0qn-16" value="+ method(type): " style="text;strokeColor=none;fillColor=none;align=left;verticalAlign=top;spacingLeft=4;spacingRight=4;overflow=hidden;rotatable=0;points=[[0,0.5],[1,0.5]];portConstraint=eastwest;" parent="Ud3K8VkBxeh35dExJ0qn-13" vertex="1">
                    <mxGeometry y="60" width="160" height="26" as="geometry"/>
                </mxCell>
                <mxCell id="Ud3K8VkBxeh35dExJ0qn-17" value="" style="endArrow=none;startArrow=diamondThin;endFill=0;startFill=0;html=1;verticalAlign=bottom;labelBackgroundColor=none;strokeWidth=1;startSize=8;endSize=8;entryX=0.5;entryY=0;entryDx=0;entryDy=0;" parent="1" source="Ud3K8VkBxeh35dExJ0qn-1" target="Ud3K8VkBxeh35dExJ0qn-13" edge="1">
                    <mxGeometry width="160" relative="1" as="geometry">
                        <mxPoint x="150" y="180" as="sourcePoint"/>
                        <mxPoint x="310" y="180" as="targetPoint"/>
                    </mxGeometry>
                </mxCell>
                <mxCell id="Ud3K8VkBxeh35dExJ0qn-18" value="" style="endArrow=none;startArrow=diamondThin;endFill=0;startFill=0;html=1;verticalAlign=bottom;labelBackgroundColor=none;strokeWidth=1;startSize=8;endSize=8;" parent="1" source="Ud3K8VkBxeh35dExJ0qn-1" target="Ud3K8VkBxeh35dExJ0qn-5" edge="1">
                    <mxGeometry width="160" relative="1" as="geometry">
                        <mxPoint x="290" y="162" as="sourcePoint"/>
                        <mxPoint x="130" y="240" as="targetPoint"/>
                    </mxGeometry>
                </mxCell>
                <mxCell id="Ud3K8VkBxeh35dExJ0qn-19" value="" style="endArrow=none;startArrow=diamondThin;endFill=0;startFill=0;html=1;verticalAlign=bottom;labelBackgroundColor=none;strokeWidth=1;startSize=8;endSize=8;entryX=0.5;entryY=0;entryDx=0;entryDy=0;" parent="1" source="Ud3K8VkBxeh35dExJ0qn-1" target="Ud3K8VkBxeh35dExJ0qn-9" edge="1">
                    <mxGeometry width="160" relative="1" as="geometry">
                        <mxPoint x="300" y="172" as="sourcePoint"/>
                        <mxPoint x="140" y="250" as="targetPoint"/>
                    </mxGeometry>
                </mxCell>
            </root>
        </mxGraphModel>
    </diagram>
    <diagram id="y57ESgfZo5Q0gPeMH4wc" name="組合">
        <mxGraphModel dx="820" dy="396" grid="1" gridSize="10" guides="1" tooltips="1" connect="1" arrows="1" fold="1" page="1" pageScale="1" pageWidth="827" pageHeight="1169" background="#666666" math="0" shadow="0">
            <root>
                <mxCell id="CHDtnuDMMGn6DQg8g9th-0"/>
                <mxCell id="CHDtnuDMMGn6DQg8g9th-1" parent="CHDtnuDMMGn6DQg8g9th-0"/>
                <mxCell id="yN9RHD4p28eKiTubf8LE-0" value="電腦手提包" style="swimlane;fontStyle=1;align=center;verticalAlign=top;childLayout=stackLayout;horizontal=1;startSize=26;horizontalStack=0;resizeParent=1;resizeParentMax=0;resizeLast=0;collapsible=1;marginBottom=0;" parent="CHDtnuDMMGn6DQg8g9th-1" vertex="1">
                    <mxGeometry x="280" y="70" width="160" height="86" as="geometry"/>
                </mxCell>
                <mxCell id="yN9RHD4p28eKiTubf8LE-1" value="+ field:  " style="text;strokeColor=none;fillColor=none;align=left;verticalAlign=top;spacingLeft=4;spacingRight=4;overflow=hidden;rotatable=0;points=[[0,0.5],[1,0.5]];portConstraint=eastwest;" parent="yN9RHD4p28eKiTubf8LE-0" vertex="1">
                    <mxGeometry y="26" width="160" height="26" as="geometry"/>
                </mxCell>
                <mxCell id="yN9RHD4p28eKiTubf8LE-2" value="" style="line;strokeWidth=1;fillColor=none;align=left;verticalAlign=middle;spacingTop=-1;spacingLeft=3;spacingRight=3;rotatable=0;labelPosition=right;points=[];portConstraint=eastwest;" parent="yN9RHD4p28eKiTubf8LE-0" vertex="1">
                    <mxGeometry y="52" width="160" height="8" as="geometry"/>
                </mxCell>
                <mxCell id="yN9RHD4p28eKiTubf8LE-3" value="+ method(type): " style="text;strokeColor=none;fillColor=none;align=left;verticalAlign=top;spacingLeft=4;spacingRight=4;overflow=hidden;rotatable=0;points=[[0,0.5],[1,0.5]];portConstraint=eastwest;" parent="yN9RHD4p28eKiTubf8LE-0" vertex="1">
                    <mxGeometry y="60" width="160" height="26" as="geometry"/>
                </mxCell>
                <mxCell id="yN9RHD4p28eKiTubf8LE-4" value="" style="endArrow=none;startArrow=diamondThin;endFill=0;startFill=1;html=1;verticalAlign=bottom;labelBackgroundColor=none;strokeWidth=1;startSize=8;endSize=8;entryX=0.5;entryY=0;entryDx=0;entryDy=0;" parent="CHDtnuDMMGn6DQg8g9th-1" source="yN9RHD4p28eKiTubf8LE-0" target="TcgGEIFI99W_NfGd1uCI-0" edge="1">
                    <mxGeometry width="160" relative="1" as="geometry">
                        <mxPoint x="290" y="162" as="sourcePoint"/>
                        <mxPoint x="360" y="260" as="targetPoint"/>
                    </mxGeometry>
                </mxCell>
                <mxCell id="TcgGEIFI99W_NfGd1uCI-0" value="握把" style="swimlane;fontStyle=1;align=center;verticalAlign=top;childLayout=stackLayout;horizontal=1;startSize=26;horizontalStack=0;resizeParent=1;resizeParentMax=0;resizeLast=0;collapsible=1;marginBottom=0;" parent="CHDtnuDMMGn6DQg8g9th-1" vertex="1">
                    <mxGeometry x="150" y="260" width="160" height="86" as="geometry"/>
                </mxCell>
                <mxCell id="TcgGEIFI99W_NfGd1uCI-1" value="+ field:  " style="text;strokeColor=none;fillColor=none;align=left;verticalAlign=top;spacingLeft=4;spacingRight=4;overflow=hidden;rotatable=0;points=[[0,0.5],[1,0.5]];portConstraint=eastwest;" parent="TcgGEIFI99W_NfGd1uCI-0" vertex="1">
                    <mxGeometry y="26" width="160" height="26" as="geometry"/>
                </mxCell>
                <mxCell id="TcgGEIFI99W_NfGd1uCI-2" value="" style="line;strokeWidth=1;fillColor=none;align=left;verticalAlign=middle;spacingTop=-1;spacingLeft=3;spacingRight=3;rotatable=0;labelPosition=right;points=[];portConstraint=eastwest;" parent="TcgGEIFI99W_NfGd1uCI-0" vertex="1">
                    <mxGeometry y="52" width="160" height="8" as="geometry"/>
                </mxCell>
                <mxCell id="TcgGEIFI99W_NfGd1uCI-3" value="+ method(type): " style="text;strokeColor=none;fillColor=none;align=left;verticalAlign=top;spacingLeft=4;spacingRight=4;overflow=hidden;rotatable=0;points=[[0,0.5],[1,0.5]];portConstraint=eastwest;" parent="TcgGEIFI99W_NfGd1uCI-0" vertex="1">
                    <mxGeometry y="60" width="160" height="26" as="geometry"/>
                </mxCell>
                <mxCell id="TcgGEIFI99W_NfGd1uCI-4" value="" style="endArrow=none;startArrow=diamondThin;endFill=0;startFill=1;html=1;verticalAlign=bottom;labelBackgroundColor=none;strokeWidth=1;startSize=8;endSize=8;entryX=0.5;entryY=0;entryDx=0;entryDy=0;" parent="CHDtnuDMMGn6DQg8g9th-1" source="yN9RHD4p28eKiTubf8LE-0" target="TcgGEIFI99W_NfGd1uCI-5" edge="1">
                    <mxGeometry width="160" relative="1" as="geometry">
                        <mxPoint x="470.74829931972795" y="156" as="sourcePoint"/>
                        <mxPoint x="400" y="260" as="targetPoint"/>
                    </mxGeometry>
                </mxCell>
                <mxCell id="TcgGEIFI99W_NfGd1uCI-5" value="皮層" style="swimlane;fontStyle=1;align=center;verticalAlign=top;childLayout=stackLayout;horizontal=1;startSize=26;horizontalStack=0;resizeParent=1;resizeParentMax=0;resizeLast=0;collapsible=1;marginBottom=0;" parent="CHDtnuDMMGn6DQg8g9th-1" vertex="1">
                    <mxGeometry x="414" y="260" width="160" height="86" as="geometry"/>
                </mxCell>
                <mxCell id="TcgGEIFI99W_NfGd1uCI-6" value="+ field:  " style="text;strokeColor=none;fillColor=none;align=left;verticalAlign=top;spacingLeft=4;spacingRight=4;overflow=hidden;rotatable=0;points=[[0,0.5],[1,0.5]];portConstraint=eastwest;" parent="TcgGEIFI99W_NfGd1uCI-5" vertex="1">
                    <mxGeometry y="26" width="160" height="26" as="geometry"/>
                </mxCell>
                <mxCell id="TcgGEIFI99W_NfGd1uCI-7" value="" style="line;strokeWidth=1;fillColor=none;align=left;verticalAlign=middle;spacingTop=-1;spacingLeft=3;spacingRight=3;rotatable=0;labelPosition=right;points=[];portConstraint=eastwest;" parent="TcgGEIFI99W_NfGd1uCI-5" vertex="1">
                    <mxGeometry y="52" width="160" height="8" as="geometry"/>
                </mxCell>
                <mxCell id="TcgGEIFI99W_NfGd1uCI-8" value="+ method(type): " style="text;strokeColor=none;fillColor=none;align=left;verticalAlign=top;spacingLeft=4;spacingRight=4;overflow=hidden;rotatable=0;points=[[0,0.5],[1,0.5]];portConstraint=eastwest;" parent="TcgGEIFI99W_NfGd1uCI-5" vertex="1">
                    <mxGeometry y="60" width="160" height="26" as="geometry"/>
                </mxCell>
                <mxCell id="TcgGEIFI99W_NfGd1uCI-9" value="扣子" style="swimlane;fontStyle=1;align=center;verticalAlign=top;childLayout=stackLayout;horizontal=1;startSize=26;horizontalStack=0;resizeParent=1;resizeParentMax=0;resizeLast=0;collapsible=1;marginBottom=0;" parent="CHDtnuDMMGn6DQg8g9th-1" vertex="1">
                    <mxGeometry x="280" y="440" width="160" height="86" as="geometry"/>
                </mxCell>
                <mxCell id="TcgGEIFI99W_NfGd1uCI-10" value="+ field:  " style="text;strokeColor=none;fillColor=none;align=left;verticalAlign=top;spacingLeft=4;spacingRight=4;overflow=hidden;rotatable=0;points=[[0,0.5],[1,0.5]];portConstraint=eastwest;" parent="TcgGEIFI99W_NfGd1uCI-9" vertex="1">
                    <mxGeometry y="26" width="160" height="26" as="geometry"/>
                </mxCell>
                <mxCell id="TcgGEIFI99W_NfGd1uCI-11" value="" style="line;strokeWidth=1;fillColor=none;align=left;verticalAlign=middle;spacingTop=-1;spacingLeft=3;spacingRight=3;rotatable=0;labelPosition=right;points=[];portConstraint=eastwest;" parent="TcgGEIFI99W_NfGd1uCI-9" vertex="1">
                    <mxGeometry y="52" width="160" height="8" as="geometry"/>
                </mxCell>
                <mxCell id="TcgGEIFI99W_NfGd1uCI-12" value="+ method(type): " style="text;strokeColor=none;fillColor=none;align=left;verticalAlign=top;spacingLeft=4;spacingRight=4;overflow=hidden;rotatable=0;points=[[0,0.5],[1,0.5]];portConstraint=eastwest;" parent="TcgGEIFI99W_NfGd1uCI-9" vertex="1">
                    <mxGeometry y="60" width="160" height="26" as="geometry"/>
                </mxCell>
                <mxCell id="TcgGEIFI99W_NfGd1uCI-13" value="拉鍊" style="swimlane;fontStyle=1;align=center;verticalAlign=top;childLayout=stackLayout;horizontal=1;startSize=26;horizontalStack=0;resizeParent=1;resizeParentMax=0;resizeLast=0;collapsible=1;marginBottom=0;" parent="CHDtnuDMMGn6DQg8g9th-1" vertex="1">
                    <mxGeometry x="540" y="440" width="160" height="86" as="geometry"/>
                </mxCell>
                <mxCell id="TcgGEIFI99W_NfGd1uCI-14" value="+ field:  " style="text;strokeColor=none;fillColor=none;align=left;verticalAlign=top;spacingLeft=4;spacingRight=4;overflow=hidden;rotatable=0;points=[[0,0.5],[1,0.5]];portConstraint=eastwest;" parent="TcgGEIFI99W_NfGd1uCI-13" vertex="1">
                    <mxGeometry y="26" width="160" height="26" as="geometry"/>
                </mxCell>
                <mxCell id="TcgGEIFI99W_NfGd1uCI-15" value="" style="line;strokeWidth=1;fillColor=none;align=left;verticalAlign=middle;spacingTop=-1;spacingLeft=3;spacingRight=3;rotatable=0;labelPosition=right;points=[];portConstraint=eastwest;" parent="TcgGEIFI99W_NfGd1uCI-13" vertex="1">
                    <mxGeometry y="52" width="160" height="8" as="geometry"/>
                </mxCell>
                <mxCell id="TcgGEIFI99W_NfGd1uCI-16" value="+ method(type): " style="text;strokeColor=none;fillColor=none;align=left;verticalAlign=top;spacingLeft=4;spacingRight=4;overflow=hidden;rotatable=0;points=[[0,0.5],[1,0.5]];portConstraint=eastwest;" parent="TcgGEIFI99W_NfGd1uCI-13" vertex="1">
                    <mxGeometry y="60" width="160" height="26" as="geometry"/>
                </mxCell>
                <mxCell id="TcgGEIFI99W_NfGd1uCI-17" value="" style="endArrow=none;startArrow=diamondThin;endFill=0;startFill=1;html=1;verticalAlign=bottom;labelBackgroundColor=none;strokeWidth=1;startSize=8;endSize=8;entryX=0.5;entryY=0;entryDx=0;entryDy=0;" parent="CHDtnuDMMGn6DQg8g9th-1" source="TcgGEIFI99W_NfGd1uCI-5" target="TcgGEIFI99W_NfGd1uCI-9" edge="1">
                    <mxGeometry width="160" relative="1" as="geometry">
                        <mxPoint x="409.1972789115646" y="166" as="sourcePoint"/>
                        <mxPoint x="504" y="270" as="targetPoint"/>
                    </mxGeometry>
                </mxCell>
                <mxCell id="TcgGEIFI99W_NfGd1uCI-18" value="" style="endArrow=none;startArrow=diamondThin;endFill=0;startFill=1;html=1;verticalAlign=bottom;labelBackgroundColor=none;strokeWidth=1;startSize=8;endSize=8;entryX=0.5;entryY=0;entryDx=0;entryDy=0;" parent="CHDtnuDMMGn6DQg8g9th-1" source="TcgGEIFI99W_NfGd1uCI-5" target="TcgGEIFI99W_NfGd1uCI-13" edge="1">
                    <mxGeometry width="160" relative="1" as="geometry">
                        <mxPoint x="419.1972789115646" y="176" as="sourcePoint"/>
                        <mxPoint x="514" y="280" as="targetPoint"/>
                    </mxGeometry>
                </mxCell>
            </root>
        </mxGraphModel>
    </diagram>
</mxfile>